<svg width="236" height="164" viewBox="0 0 236 164" fill="none" xmlns="http://www.w3.org/2000/svg">
<path d="M5.698 113.168C4.214 113.168 2.98667 112.678 2.016 111.698C1.04533 110.718 0.56 109.519 0.56 108.1C0.56 106.681 1.04533 105.482 2.016 104.502C2.98667 103.522 4.214 103.032 5.698 103.032C6.60333 103.032 7.434 103.251 8.19 103.69C8.946 104.119 9.52933 104.703 9.94 105.44L9.072 105.944C8.764 105.347 8.30667 104.871 7.7 104.516C7.09333 104.161 6.426 103.984 5.698 103.984C4.47533 103.984 3.47667 104.381 2.702 105.174C1.92733 105.967 1.54 106.943 1.54 108.1C1.54 109.257 1.92733 110.233 2.702 111.026C3.47667 111.819 4.47533 112.216 5.698 112.216C6.426 112.216 7.09333 112.039 7.7 111.684C8.30667 111.329 8.764 110.853 9.072 110.256L9.94 110.746C9.53867 111.483 8.95533 112.071 8.19 112.51C7.434 112.949 6.60333 113.168 5.698 113.168ZM16.5076 106H17.2916V113H16.3676V107.61L12.1956 113H11.4116V106H12.3356V111.39L16.5076 106ZM22.5076 113.168C21.453 113.168 20.5756 112.818 19.8756 112.118C19.1756 111.409 18.8256 110.536 18.8256 109.5C18.8256 108.464 19.1756 107.596 19.8756 106.896C20.5756 106.187 21.453 105.832 22.5076 105.832C23.1983 105.832 23.819 106 24.3696 106.336C24.9203 106.663 25.3216 107.106 25.5736 107.666L24.8176 108.1C24.631 107.68 24.3276 107.349 23.9076 107.106C23.497 106.854 23.0303 106.728 22.5076 106.728C21.733 106.728 21.0796 106.999 20.5476 107.54C20.0156 108.072 19.7496 108.725 19.7496 109.5C19.7496 110.275 20.0156 110.933 20.5476 111.474C21.0796 112.006 21.733 112.272 22.5076 112.272C23.0303 112.272 23.497 112.151 23.9076 111.908C24.3183 111.656 24.6403 111.32 24.8736 110.9L25.6436 111.348C25.3543 111.908 24.9296 112.351 24.3696 112.678C23.8096 113.005 23.189 113.168 22.5076 113.168ZM31.8735 106V106.896H29.3955V113H28.4715V106.896H25.9935V106H31.8735ZM35.9601 105.832C36.9961 105.832 37.8314 106.201 38.4661 106.938C39.1101 107.666 39.4321 108.529 39.4321 109.528C39.4321 109.631 39.4228 109.775 39.4041 109.962H33.2581C33.3514 110.671 33.6501 111.236 34.1541 111.656C34.6674 112.067 35.2974 112.272 36.0441 112.272C36.5761 112.272 37.0334 112.165 37.4161 111.95C37.8081 111.726 38.1021 111.437 38.2981 111.082L39.1101 111.558C38.8021 112.053 38.3821 112.445 37.8501 112.734C37.3181 113.023 36.7114 113.168 36.0301 113.168C34.9288 113.168 34.0328 112.823 33.3421 112.132C32.6514 111.441 32.3061 110.564 32.3061 109.5C32.3061 108.455 32.6468 107.582 33.3281 106.882C34.0094 106.182 34.8868 105.832 35.9601 105.832ZM35.9601 106.728C35.2321 106.728 34.6208 106.947 34.1261 107.386C33.6408 107.815 33.3514 108.375 33.2581 109.066H38.4801C38.3868 108.329 38.1021 107.755 37.6261 107.344C37.1501 106.933 36.5948 106.728 35.9601 106.728ZM47.7619 106V113H46.8379V107.414L44.3879 111.39H44.2759L41.8259 107.414V113H40.9019V106H41.9659L44.3319 109.836L46.6979 106H47.7619ZM55.7402 106H56.6642V113H55.7402V111.628C55.0962 112.655 54.1536 113.168 52.9122 113.168C51.9136 113.168 51.0596 112.813 50.3502 112.104C49.6502 111.395 49.3002 110.527 49.3002 109.5C49.3002 108.473 49.6502 107.605 50.3502 106.896C51.0596 106.187 51.9136 105.832 52.9122 105.832C54.1536 105.832 55.0962 106.345 55.7402 107.372V106ZM51.0222 111.474C51.5542 112.006 52.2076 112.272 52.9822 112.272C53.7569 112.272 54.4102 112.006 54.9422 111.474C55.4742 110.933 55.7402 110.275 55.7402 109.5C55.7402 108.725 55.4742 108.072 54.9422 107.54C54.4102 106.999 53.7569 106.728 52.9822 106.728C52.2076 106.728 51.5542 106.999 51.0222 107.54C50.4902 108.072 50.2242 108.725 50.2242 109.5C50.2242 110.275 50.4902 110.933 51.0222 111.474ZM68.0006 106V113H67.0766V106.896H63.0446V113H62.1206V106H68.0006ZM75.8206 112.118C75.1113 112.818 74.2433 113.168 73.2166 113.168C72.1899 113.168 71.3173 112.818 70.5986 112.118C69.8893 111.409 69.5346 110.536 69.5346 109.5C69.5346 108.464 69.8893 107.596 70.5986 106.896C71.3173 106.187 72.1899 105.832 73.2166 105.832C74.2433 105.832 75.1113 106.187 75.8206 106.896C76.5393 107.596 76.8986 108.464 76.8986 109.5C76.8986 110.536 76.5393 111.409 75.8206 112.118ZM71.2566 111.474C71.7886 112.006 72.4419 112.272 73.2166 112.272C73.9913 112.272 74.6446 112.006 75.1766 111.474C75.7086 110.933 75.9746 110.275 75.9746 109.5C75.9746 108.725 75.7086 108.072 75.1766 107.54C74.6446 106.999 73.9913 106.728 73.2166 106.728C72.4419 106.728 71.7886 106.999 71.2566 107.54C70.7246 108.072 70.4586 108.725 70.4586 109.5C70.4586 110.275 70.7246 110.933 71.2566 111.474ZM81.7068 113.168C80.6522 113.168 79.7748 112.818 79.0748 112.118C78.3748 111.409 78.0248 110.536 78.0248 109.5C78.0248 108.464 78.3748 107.596 79.0748 106.896C79.7748 106.187 80.6522 105.832 81.7068 105.832C82.3975 105.832 83.0182 106 83.5688 106.336C84.1195 106.663 84.5208 107.106 84.7728 107.666L84.0168 108.1C83.8302 107.68 83.5268 107.349 83.1068 107.106C82.6962 106.854 82.2295 106.728 81.7068 106.728C80.9322 106.728 80.2788 106.999 79.7468 107.54C79.2148 108.072 78.9488 108.725 78.9488 109.5C78.9488 110.275 79.2148 110.933 79.7468 111.474C80.2788 112.006 80.9322 112.272 81.7068 112.272C82.2295 112.272 82.6962 112.151 83.1068 111.908C83.5175 111.656 83.8395 111.32 84.0728 110.9L84.8428 111.348C84.5535 111.908 84.1288 112.351 83.5688 112.678C83.0088 113.005 82.3882 113.168 81.7068 113.168ZM91.0727 106V106.896H88.5947V113H87.6707V106.896H85.1927V106H91.0727ZM93.1368 104.32C93.0061 104.451 92.8474 104.516 92.6608 104.516C92.4741 104.516 92.3154 104.451 92.1848 104.32C92.0541 104.189 91.9888 104.031 91.9888 103.844C91.9888 103.657 92.0541 103.499 92.1848 103.368C92.3154 103.237 92.4741 103.172 92.6608 103.172C92.8474 103.172 93.0061 103.237 93.1368 103.368C93.2674 103.499 93.3328 103.657 93.3328 103.844C93.3328 104.031 93.2674 104.189 93.1368 104.32ZM92.1988 113V106H93.1228V113H92.1988ZM96.2035 104.88V104.068H99.8435V104.88H96.2035ZM100.18 106H100.964V113H100.04V107.61L95.8675 113H95.0835V106H96.0075V111.39L100.18 106ZM107.874 106H108.798V113H107.874V109.948H103.842V113H102.918V106H103.842V109.052H107.874V106ZM116.617 112.118C115.908 112.818 115.04 113.168 114.013 113.168C112.987 113.168 112.114 112.818 111.395 112.118C110.686 111.409 110.331 110.536 110.331 109.5C110.331 108.464 110.686 107.596 111.395 106.896C112.114 106.187 112.987 105.832 114.013 105.832C115.04 105.832 115.908 106.187 116.617 106.896C117.336 107.596 117.695 108.464 117.695 109.5C117.695 110.536 117.336 111.409 116.617 112.118ZM112.053 111.474C112.585 112.006 113.239 112.272 114.013 112.272C114.788 112.272 115.441 112.006 115.973 111.474C116.505 110.933 116.771 110.275 116.771 109.5C116.771 108.725 116.505 108.072 115.973 107.54C115.441 106.999 114.788 106.728 114.013 106.728C113.239 106.728 112.585 106.999 112.053 107.54C111.521 108.072 111.255 108.725 111.255 109.5C111.255 110.275 111.521 110.933 112.053 111.474ZM128.608 112.118C127.898 112.818 127.03 113.168 126.004 113.168C124.977 113.168 124.104 112.818 123.386 112.118C122.676 111.409 122.322 110.536 122.322 109.5C122.322 108.464 122.676 107.596 123.386 106.896C124.104 106.187 124.977 105.832 126.004 105.832C127.03 105.832 127.898 106.187 128.608 106.896C129.326 107.596 129.686 108.464 129.686 109.5C129.686 110.536 129.326 111.409 128.608 112.118ZM124.044 111.474C124.576 112.006 125.229 112.272 126.004 112.272C126.778 112.272 127.432 112.006 127.964 111.474C128.496 110.933 128.762 110.275 128.762 109.5C128.762 108.725 128.496 108.072 127.964 107.54C127.432 106.999 126.778 106.728 126.004 106.728C125.229 106.728 124.576 106.999 124.044 107.54C123.512 108.072 123.246 108.725 123.246 109.5C123.246 110.275 123.512 110.933 124.044 111.474ZM136.972 112.104H138.092V114.876H137.168V113H131.232V106H132.156V112.104H136.048V106H136.972V112.104ZM140.428 104.32C140.297 104.451 140.138 104.516 139.952 104.516C139.765 104.516 139.606 104.451 139.476 104.32C139.345 104.189 139.28 104.031 139.28 103.844C139.28 103.657 139.345 103.499 139.476 103.368C139.606 103.237 139.765 103.172 139.952 103.172C140.138 103.172 140.297 103.237 140.428 103.368C140.558 103.499 140.624 103.657 140.624 103.844C140.624 104.031 140.558 104.189 140.428 104.32ZM139.49 113V106H140.414V113H139.49ZM147.331 106H148.255V113H147.331V109.948H143.299V113H142.375V106H143.299V109.052H147.331V106ZM156.187 105.832C157.213 105.832 158.081 106.187 158.791 106.896C159.509 107.596 159.869 108.464 159.869 109.5C159.869 110.536 159.509 111.409 158.791 112.118C158.081 112.818 157.213 113.168 156.187 113.168C155.244 113.168 154.432 112.865 153.751 112.258C153.079 111.642 152.691 110.872 152.589 109.948H151.133V113H150.209V106H151.133V109.052H152.589C152.691 108.128 153.079 107.363 153.751 106.756C154.432 106.14 155.244 105.832 156.187 105.832ZM154.227 111.474C154.759 112.006 155.412 112.272 156.187 112.272C156.961 112.272 157.615 112.006 158.147 111.474C158.679 110.933 158.945 110.275 158.945 109.5C158.945 108.725 158.679 108.072 158.147 107.54C157.615 106.999 156.961 106.728 156.187 106.728C155.412 106.728 154.759 106.999 154.227 107.54C153.695 108.072 153.429 108.725 153.429 109.5C153.429 110.275 153.695 110.933 154.227 111.474ZM166.894 110.858L167.692 111.32C167.449 111.889 167.048 112.342 166.488 112.678C165.937 113.005 165.284 113.168 164.528 113.168C163.464 113.168 162.605 112.823 161.952 112.132C161.308 111.432 160.986 110.555 160.986 109.5C160.986 108.445 161.308 107.573 161.952 106.882C162.596 106.182 163.445 105.832 164.5 105.832C165.2 105.832 165.825 105.995 166.376 106.322C166.936 106.649 167.356 107.097 167.636 107.666L166.824 108.128C166.628 107.699 166.324 107.358 165.914 107.106C165.503 106.854 165.032 106.728 164.5 106.728C163.8 106.728 163.216 106.947 162.75 107.386C162.292 107.815 162.022 108.371 161.938 109.052H165.424V109.948H161.938C162.031 110.629 162.311 111.189 162.778 111.628C163.244 112.057 163.828 112.272 164.528 112.272C165.125 112.272 165.629 112.146 166.04 111.894C166.45 111.633 166.735 111.287 166.894 110.858ZM176.905 109.402C177.67 109.682 178.053 110.228 178.053 111.04C178.053 111.609 177.861 112.081 177.479 112.454C177.105 112.818 176.564 113 175.855 113H172.453V106H175.575C176.256 106 176.783 106.177 177.157 106.532C177.53 106.877 177.717 107.325 177.717 107.876C177.717 108.576 177.446 109.085 176.905 109.402ZM175.575 106.896H173.377V109.024H175.575C176.387 109.024 176.793 108.66 176.793 107.932C176.793 107.605 176.685 107.353 176.471 107.176C176.265 106.989 175.967 106.896 175.575 106.896ZM175.855 112.104C176.265 112.104 176.578 112.006 176.793 111.81C177.017 111.614 177.129 111.339 177.129 110.984C177.129 110.657 177.017 110.401 176.793 110.214C176.578 110.018 176.265 109.92 175.855 109.92H173.377V112.104H175.855ZM182.687 105.832C183.723 105.832 184.558 106.201 185.193 106.938C185.837 107.666 186.159 108.529 186.159 109.528C186.159 109.631 186.149 109.775 186.131 109.962H179.985C180.078 110.671 180.377 111.236 180.881 111.656C181.394 112.067 182.024 112.272 182.771 112.272C183.303 112.272 183.76 112.165 184.143 111.95C184.535 111.726 184.829 111.437 185.025 111.082L185.837 111.558C185.529 112.053 185.109 112.445 184.577 112.734C184.045 113.023 183.438 113.168 182.757 113.168C181.655 113.168 180.759 112.823 180.069 112.132C179.378 111.441 179.033 110.564 179.033 109.5C179.033 108.455 179.373 107.582 180.055 106.882C180.736 106.182 181.613 105.832 182.687 105.832ZM182.687 106.728C181.959 106.728 181.347 106.947 180.853 107.386C180.367 107.815 180.078 108.375 179.985 109.066H185.207C185.113 108.329 184.829 107.755 184.353 107.344C183.877 106.933 183.321 106.728 182.687 106.728ZM193.095 106V113H192.171V106.896H189.007V110.018C189.007 111.185 188.783 111.987 188.335 112.426C187.896 112.865 187.29 113.056 186.515 113V112.132C187.047 112.188 187.439 112.062 187.691 111.754C187.952 111.446 188.083 110.867 188.083 110.018V106H193.095ZM200.148 106H200.932V113H200.008V107.61L195.836 113H195.052V106H195.976V111.39L200.148 106ZM208.542 113H207.31L203.81 109.626V113H202.886V106H203.81V109.094L207.142 106H208.402L204.79 109.36L208.542 113ZM214.9 106H215.684V113H214.76V107.61L210.588 113H209.804V106H210.728V111.39L214.9 106ZM218.758 104.88V104.068H222.398V104.88H218.758ZM222.734 106H223.518V113H222.594V107.61L218.422 113H217.638V106H218.562V111.39L222.734 106ZM6.86 128.104H7.84V130.876H6.916V129H1.204V130.876H0.28V128.104H1.134C1.61 127.479 1.848 126.597 1.848 125.458V122H6.86V128.104ZM2.254 128.104H5.936V122.896H2.772V125.458C2.772 126.531 2.59933 127.413 2.254 128.104ZM10.1758 120.32C10.0451 120.451 9.88648 120.516 9.69981 120.516C9.51315 120.516 9.35448 120.451 9.22381 120.32C9.09315 120.189 9.02781 120.031 9.02781 119.844C9.02781 119.657 9.09315 119.499 9.22381 119.368C9.35448 119.237 9.51315 119.172 9.69981 119.172C9.88648 119.172 10.0451 119.237 10.1758 119.368C10.3065 119.499 10.3718 119.657 10.3718 119.844C10.3718 120.031 10.3065 120.189 10.1758 120.32ZM9.23781 129V122H10.1618V129H9.23781ZM18.1426 122H19.0666V129H18.1426V127.628C17.4986 128.655 16.5559 129.168 15.3146 129.168C14.3159 129.168 13.4619 128.813 12.7526 128.104C12.0526 127.395 11.7026 126.527 11.7026 125.5C11.7026 124.473 12.0526 123.605 12.7526 122.896C13.4619 122.187 14.3159 121.832 15.3146 121.832C16.5559 121.832 17.4986 122.345 18.1426 123.372V122ZM13.4246 127.474C13.9566 128.006 14.6099 128.272 15.3846 128.272C16.1592 128.272 16.8126 128.006 17.3446 127.474C17.8766 126.933 18.1426 126.275 18.1426 125.5C18.1426 124.725 17.8766 124.072 17.3446 123.54C16.8126 122.999 16.1592 122.728 15.3846 122.728C14.6099 122.728 13.9566 122.999 13.4246 123.54C12.8926 124.072 12.6266 124.725 12.6266 125.5C12.6266 126.275 12.8926 126.933 13.4246 127.474ZM26.903 122V129H25.979V122.896H21.947V129H21.023V122H26.903ZM34.877 122H35.801V129H34.877V127.628C34.233 128.655 33.2903 129.168 32.049 129.168C31.0503 129.168 30.1963 128.813 29.487 128.104C28.787 127.395 28.437 126.527 28.437 125.5C28.437 124.473 28.787 123.605 29.487 122.896C30.1963 122.187 31.0503 121.832 32.049 121.832C33.2903 121.832 34.233 122.345 34.877 123.372V122ZM30.159 127.474C30.691 128.006 31.3443 128.272 32.119 128.272C32.8936 128.272 33.547 128.006 34.079 127.474C34.611 126.933 34.877 126.275 34.877 125.5C34.877 124.725 34.611 124.072 34.079 123.54C33.547 122.999 32.8936 122.728 32.119 122.728C31.3443 122.728 30.691 122.999 30.159 123.54C29.627 124.072 29.361 124.725 29.361 125.5C29.361 126.275 29.627 126.933 30.159 127.474ZM41.3693 125.402C42.1813 125.71 42.5873 126.27 42.5873 127.082C42.5873 127.661 42.3587 128.155 41.9013 128.566C41.4533 128.967 40.8093 129.168 39.9693 129.168C38.56 129.168 37.636 128.608 37.1973 127.488L37.9813 127.026C38.2707 127.857 38.9333 128.272 39.9693 128.272C40.5107 128.272 40.926 128.155 41.2153 127.922C41.514 127.689 41.6633 127.39 41.6633 127.026C41.6633 126.699 41.542 126.433 41.2993 126.228C41.0567 126.023 40.73 125.92 40.3193 125.92H39.2973V125.024H40.0393C40.4407 125.024 40.7533 124.926 40.9773 124.73C41.2107 124.525 41.3273 124.245 41.3273 123.89C41.3273 123.554 41.192 123.279 40.9213 123.064C40.6507 122.84 40.2867 122.728 39.8293 122.728C38.952 122.728 38.3687 123.078 38.0793 123.778L37.3093 123.33C37.776 122.331 38.616 121.832 39.8293 121.832C40.5667 121.832 41.1547 122.028 41.5933 122.42C42.032 122.803 42.2513 123.274 42.2513 123.834C42.2513 124.553 41.9573 125.075 41.3693 125.402ZM49.8577 128.118C49.1484 128.818 48.2804 129.168 47.2537 129.168C46.2271 129.168 45.3544 128.818 44.6357 128.118C43.9264 127.409 43.5717 126.536 43.5717 125.5C43.5717 124.464 43.9264 123.596 44.6357 122.896C45.3544 122.187 46.2271 121.832 47.2537 121.832C48.2804 121.832 49.1484 122.187 49.8577 122.896C50.5764 123.596 50.9357 124.464 50.9357 125.5C50.9357 126.536 50.5764 127.409 49.8577 128.118ZM45.2937 127.474C45.8257 128.006 46.4791 128.272 47.2537 128.272C48.0284 128.272 48.6817 128.006 49.2137 127.474C49.7457 126.933 50.0117 126.275 50.0117 125.5C50.0117 124.725 49.7457 124.072 49.2137 123.54C48.6817 122.999 48.0284 122.728 47.2537 122.728C46.4791 122.728 45.8257 122.999 45.2937 123.54C44.7617 124.072 44.4957 124.725 44.4957 125.5C44.4957 126.275 44.7617 126.933 45.2937 127.474ZM57.438 122H58.362V129H57.438V125.948H53.406V129H52.482V122H53.406V125.052H57.438V122ZM67.0779 129.168C66.0233 129.168 65.1459 128.818 64.4459 128.118C63.7459 127.409 63.3959 126.536 63.3959 125.5C63.3959 124.464 63.7459 123.596 64.4459 122.896C65.1459 122.187 66.0233 121.832 67.0779 121.832C67.7686 121.832 68.3893 122 68.9399 122.336C69.4906 122.663 69.8919 123.106 70.1439 123.666L69.3879 124.1C69.2013 123.68 68.8979 123.349 68.4779 123.106C68.0673 122.854 67.6006 122.728 67.0779 122.728C66.3033 122.728 65.6499 122.999 65.1179 123.54C64.5859 124.072 64.3199 124.725 64.3199 125.5C64.3199 126.275 64.5859 126.933 65.1179 127.474C65.6499 128.006 66.3033 128.272 67.0779 128.272C67.6006 128.272 68.0673 128.151 68.4779 127.908C68.8886 127.656 69.2106 127.32 69.4439 126.9L70.2139 127.348C69.9246 127.908 69.4999 128.351 68.9399 128.678C68.3799 129.005 67.7593 129.168 67.0779 129.168ZM76.4438 122V122.896H73.9658V129H73.0418V122.896H70.5638V122H76.4438ZM83.3164 122H84.2404V129H83.3164V127.628C82.6724 128.655 81.7297 129.168 80.4884 129.168C79.4897 129.168 78.6357 128.813 77.9264 128.104C77.2264 127.395 76.8764 126.527 76.8764 125.5C76.8764 124.473 77.2264 123.605 77.9264 122.896C78.6357 122.187 79.4897 121.832 80.4884 121.832C81.7297 121.832 82.6724 122.345 83.3164 123.372V122ZM78.5984 127.474C79.1304 128.006 79.7837 128.272 80.5584 128.272C81.3331 128.272 81.9864 128.006 82.5184 127.474C83.0504 126.933 83.3164 126.275 83.3164 125.5C83.3164 124.725 83.0504 124.072 82.5184 123.54C81.9864 122.999 81.3331 122.728 80.5584 122.728C79.7837 122.728 79.1304 122.999 78.5984 123.54C78.0664 124.072 77.8004 124.725 77.8004 125.5C77.8004 126.275 78.0664 126.933 78.5984 127.474ZM91.1528 122H92.0768V129H91.1528V125.948H87.1208V129H86.1968V122H87.1208V125.052H91.1528V122ZM99.0708 122H100.051L97.0548 129.644C96.7841 130.335 96.3968 130.876 95.8928 131.268C95.3981 131.669 94.8428 131.847 94.2268 131.8V130.932C95.0668 131.025 95.7061 130.54 96.1448 129.476L96.3268 129.042L93.1908 122H94.1708L96.8028 127.866L99.0708 122ZM107.776 129.168C106.768 129.168 105.928 128.837 105.256 128.174C104.584 127.502 104.248 126.634 104.248 125.57C104.248 124.375 104.425 123.461 104.78 122.826C105.134 122.182 105.853 121.599 106.936 121.076C107.141 120.973 107.412 120.852 107.748 120.712C108.093 120.572 108.35 120.46 108.518 120.376C108.695 120.292 108.886 120.185 109.092 120.054C109.297 119.914 109.451 119.76 109.554 119.592C109.656 119.424 109.722 119.223 109.75 118.99L110.478 119.41C110.44 119.634 110.366 119.844 110.254 120.04C110.142 120.236 110.025 120.395 109.904 120.516C109.792 120.637 109.61 120.773 109.358 120.922C109.115 121.062 108.924 121.165 108.784 121.23C108.653 121.286 108.42 121.384 108.084 121.524C107.757 121.664 107.538 121.757 107.426 121.804C106.772 122.084 106.292 122.378 105.984 122.686C105.676 122.985 105.456 123.377 105.326 123.862C105.643 123.442 106.044 123.134 106.53 122.938C107.024 122.733 107.505 122.63 107.972 122.63C108.905 122.63 109.675 122.938 110.282 123.554C110.898 124.161 111.206 124.94 111.206 125.892C111.206 126.835 110.879 127.619 110.226 128.244C109.582 128.86 108.765 129.168 107.776 129.168ZM107.776 128.244C108.504 128.244 109.101 128.025 109.568 127.586C110.044 127.138 110.282 126.573 110.282 125.892C110.282 125.201 110.058 124.637 109.61 124.198C109.171 123.75 108.583 123.526 107.846 123.526C107.183 123.526 106.581 123.736 106.04 124.156C105.498 124.567 105.228 125.117 105.228 125.808C105.228 126.517 105.47 127.101 105.956 127.558C106.45 128.015 107.057 128.244 107.776 128.244ZM115.845 121.832C116.881 121.832 117.716 122.201 118.351 122.938C118.995 123.666 119.317 124.529 119.317 125.528C119.317 125.631 119.308 125.775 119.289 125.962H113.143C113.236 126.671 113.535 127.236 114.039 127.656C114.552 128.067 115.182 128.272 115.929 128.272C116.461 128.272 116.918 128.165 117.301 127.95C117.693 127.726 117.987 127.437 118.183 127.082L118.995 127.558C118.687 128.053 118.267 128.445 117.735 128.734C117.203 129.023 116.596 129.168 115.915 129.168C114.814 129.168 113.918 128.823 113.227 128.132C112.536 127.441 112.191 126.564 112.191 125.5C112.191 124.455 112.532 123.582 113.213 122.882C113.894 122.182 114.772 121.832 115.845 121.832ZM115.845 122.728C115.117 122.728 114.506 122.947 114.011 123.386C113.526 123.815 113.236 124.375 113.143 125.066H118.365C118.272 124.329 117.987 123.755 117.511 123.344C117.035 122.933 116.48 122.728 115.845 122.728ZM124.049 129.168C122.994 129.168 122.117 128.818 121.417 128.118C120.717 127.409 120.367 126.536 120.367 125.5C120.367 124.464 120.717 123.596 121.417 122.896C122.117 122.187 122.994 121.832 124.049 121.832C124.739 121.832 125.36 122 125.911 122.336C126.461 122.663 126.863 123.106 127.115 123.666L126.359 124.1C126.172 123.68 125.869 123.349 125.449 123.106C125.038 122.854 124.571 122.728 124.049 122.728C123.274 122.728 122.621 122.999 122.089 123.54C121.557 124.072 121.291 124.725 121.291 125.5C121.291 126.275 121.557 126.933 122.089 127.474C122.621 128.006 123.274 128.272 124.049 128.272C124.571 128.272 125.038 128.151 125.449 127.908C125.859 127.656 126.181 127.32 126.415 126.9L127.185 127.348C126.895 127.908 126.471 128.351 125.911 128.678C125.351 129.005 124.73 129.168 124.049 129.168ZM129.449 120.32C129.319 120.451 129.16 120.516 128.973 120.516C128.787 120.516 128.628 120.451 128.497 120.32C128.367 120.189 128.301 120.031 128.301 119.844C128.301 119.657 128.367 119.499 128.497 119.368C128.628 119.237 128.787 119.172 128.973 119.172C129.16 119.172 129.319 119.237 129.449 119.368C129.58 119.499 129.645 119.657 129.645 119.844C129.645 120.031 129.58 120.189 129.449 120.32ZM128.511 129V122H129.435V129H128.511ZM137.276 128.104H138.256V130.876H137.332V129H131.62V130.876H130.696V128.104H131.55C132.026 127.479 132.264 126.597 132.264 125.458V122H137.276V128.104ZM132.67 128.104H136.352V122.896H133.188V125.458C133.188 126.531 133.015 127.413 132.67 128.104ZM144.75 122H145.534V129H144.61V123.61L140.438 129H139.654V122H140.578V127.39L144.75 122ZM149.028 127.81L148.188 130.96H147.348L147.908 127.81H149.028ZM158.803 125.402C159.568 125.682 159.951 126.228 159.951 127.04C159.951 127.609 159.76 128.081 159.377 128.454C159.004 128.818 158.462 129 157.753 129H154.351V122H157.473C158.154 122 158.682 122.177 159.055 122.532C159.428 122.877 159.615 123.325 159.615 123.876C159.615 124.576 159.344 125.085 158.803 125.402ZM157.473 122.896H155.275V125.024H157.473C158.285 125.024 158.691 124.66 158.691 123.932C158.691 123.605 158.584 123.353 158.369 123.176C158.164 122.989 157.865 122.896 157.473 122.896ZM157.753 128.104C158.164 128.104 158.476 128.006 158.691 127.81C158.915 127.614 159.027 127.339 159.027 126.984C159.027 126.657 158.915 126.401 158.691 126.214C158.476 126.018 158.164 125.92 157.753 125.92H155.275V128.104H157.753ZM164.585 121.832C165.621 121.832 166.456 122.201 167.091 122.938C167.735 123.666 168.057 124.529 168.057 125.528C168.057 125.631 168.048 125.775 168.029 125.962H161.883C161.976 126.671 162.275 127.236 162.779 127.656C163.292 128.067 163.922 128.272 164.669 128.272C165.201 128.272 165.658 128.165 166.041 127.95C166.433 127.726 166.727 127.437 166.923 127.082L167.735 127.558C167.427 128.053 167.007 128.445 166.475 128.734C165.943 129.023 165.336 129.168 164.655 129.168C163.554 129.168 162.658 128.823 161.967 128.132C161.276 127.441 160.931 126.564 160.931 125.5C160.931 124.455 161.272 123.582 161.953 122.882C162.634 122.182 163.512 121.832 164.585 121.832ZM164.585 122.728C163.857 122.728 163.246 122.947 162.751 123.386C162.266 123.815 161.976 124.375 161.883 125.066H167.105C167.012 124.329 166.727 123.755 166.251 123.344C165.775 122.933 165.22 122.728 164.585 122.728ZM175.133 128.104H176.113V130.876H175.189V129H169.477V130.876H168.553V128.104H169.407C169.883 127.479 170.121 126.597 170.121 125.458V122H175.133V128.104ZM170.527 128.104H174.209V122.896H171.045V125.458C171.045 126.531 170.873 127.413 170.527 128.104ZM180.472 121.832C181.508 121.832 182.343 122.201 182.978 122.938C183.622 123.666 183.944 124.529 183.944 125.528C183.944 125.631 183.934 125.775 183.916 125.962H177.77C177.863 126.671 178.162 127.236 178.666 127.656C179.179 128.067 179.809 128.272 180.556 128.272C181.088 128.272 181.545 128.165 181.928 127.95C182.32 127.726 182.614 127.437 182.81 127.082L183.622 127.558C183.314 128.053 182.894 128.445 182.362 128.734C181.83 129.023 181.223 129.168 180.542 129.168C179.44 129.168 178.544 128.823 177.854 128.132C177.163 127.441 176.818 126.564 176.818 125.5C176.818 124.455 177.158 123.582 177.84 122.882C178.521 122.182 179.398 121.832 180.472 121.832ZM180.472 122.728C179.744 122.728 179.132 122.947 178.638 123.386C178.152 123.815 177.863 124.375 177.77 125.066H182.992C182.898 124.329 182.614 123.755 182.138 123.344C181.662 122.933 181.106 122.728 180.472 122.728ZM4.732 137.832C5.73067 137.832 6.58 138.187 7.28 138.896C7.98933 139.605 8.344 140.473 8.344 141.5C8.344 142.527 7.98933 143.395 7.28 144.104C6.58 144.813 5.73067 145.168 4.732 145.168C3.49067 145.168 2.548 144.655 1.904 143.628V147.8H0.98V138H1.904V139.372C2.548 138.345 3.49067 137.832 4.732 137.832ZM2.702 143.474C3.234 144.006 3.88733 144.272 4.662 144.272C5.43667 144.272 6.09 144.006 6.622 143.474C7.154 142.933 7.42 142.275 7.42 141.5C7.42 140.725 7.154 140.072 6.622 139.54C6.09 138.999 5.43667 138.728 4.662 138.728C3.88733 138.728 3.234 138.999 2.702 139.54C2.17 140.072 1.904 140.725 1.904 141.5C1.904 142.275 2.17 142.933 2.702 143.474ZM15.7464 144.118C15.0371 144.818 14.1691 145.168 13.1424 145.168C12.1157 145.168 11.2431 144.818 10.5244 144.118C9.81506 143.409 9.46039 142.536 9.46039 141.5C9.46039 140.464 9.81506 139.596 10.5244 138.896C11.2431 138.187 12.1157 137.832 13.1424 137.832C14.1691 137.832 15.0371 138.187 15.7464 138.896C16.4651 139.596 16.8244 140.464 16.8244 141.5C16.8244 142.536 16.4651 143.409 15.7464 144.118ZM11.1824 143.474C11.7144 144.006 12.3677 144.272 13.1424 144.272C13.9171 144.272 14.5704 144.006 15.1024 143.474C15.6344 142.933 15.9004 142.275 15.9004 141.5C15.9004 140.725 15.6344 140.072 15.1024 139.54C14.5704 138.999 13.9171 138.728 13.1424 138.728C12.3677 138.728 11.7144 138.999 11.1824 139.54C10.6504 140.072 10.3844 140.725 10.3844 141.5C10.3844 142.275 10.6504 142.933 11.1824 143.474ZM21.7092 141.402C22.5212 141.71 22.9272 142.27 22.9272 143.082C22.9272 143.661 22.6985 144.155 22.2412 144.566C21.7932 144.967 21.1492 145.168 20.3092 145.168C18.8999 145.168 17.9759 144.608 17.5372 143.488L18.3212 143.026C18.6105 143.857 19.2732 144.272 20.3092 144.272C20.8505 144.272 21.2659 144.155 21.5552 143.922C21.8539 143.689 22.0032 143.39 22.0032 143.026C22.0032 142.699 21.8819 142.433 21.6392 142.228C21.3965 142.023 21.0699 141.92 20.6592 141.92H19.6372V141.024H20.3792C20.7805 141.024 21.0932 140.926 21.3172 140.73C21.5505 140.525 21.6672 140.245 21.6672 139.89C21.6672 139.554 21.5319 139.279 21.2612 139.064C20.9905 138.84 20.6265 138.728 20.1692 138.728C19.2919 138.728 18.7085 139.078 18.4192 139.778L17.6492 139.33C18.1159 138.331 18.9559 137.832 20.1692 137.832C20.9065 137.832 21.4945 138.028 21.9332 138.42C22.3719 138.803 22.5912 139.274 22.5912 139.834C22.5912 140.553 22.2972 141.075 21.7092 141.402ZM31.1916 138V145H30.2676V139.414L27.8176 143.39H27.7056L25.2556 139.414V145H24.3316V138H25.3956L27.7616 141.836L30.1276 138H31.1916ZM39.0159 144.118C38.3066 144.818 37.4386 145.168 36.4119 145.168C35.3853 145.168 34.5126 144.818 33.7939 144.118C33.0846 143.409 32.7299 142.536 32.7299 141.5C32.7299 140.464 33.0846 139.596 33.7939 138.896C34.5126 138.187 35.3853 137.832 36.4119 137.832C37.4386 137.832 38.3066 138.187 39.0159 138.896C39.7346 139.596 40.0939 140.464 40.0939 141.5C40.0939 142.536 39.7346 143.409 39.0159 144.118ZM34.4519 143.474C34.9839 144.006 35.6373 144.272 36.4119 144.272C37.1866 144.272 37.8399 144.006 38.3719 143.474C38.9039 142.933 39.1699 142.275 39.1699 141.5C39.1699 140.725 38.9039 140.072 38.3719 139.54C37.8399 138.999 37.1866 138.728 36.4119 138.728C35.6373 138.728 34.9839 138.999 34.4519 139.54C33.9199 140.072 33.6539 140.725 33.6539 141.5C33.6539 142.275 33.9199 142.933 34.4519 143.474ZM46.0922 141.402C46.8575 141.682 47.2402 142.228 47.2402 143.04C47.2402 143.609 47.0488 144.081 46.6662 144.454C46.2928 144.818 45.7515 145 45.0422 145H41.6402V138H44.7622C45.4435 138 45.9708 138.177 46.3442 138.532C46.7175 138.877 46.9042 139.325 46.9042 139.876C46.9042 140.576 46.6335 141.085 46.0922 141.402ZM44.7622 138.896H42.5642V141.024H44.7622C45.5742 141.024 45.9802 140.66 45.9802 139.932C45.9802 139.605 45.8728 139.353 45.6582 139.176C45.4528 138.989 45.1542 138.896 44.7622 138.896ZM45.0422 144.104C45.4528 144.104 45.7655 144.006 45.9802 143.81C46.2042 143.614 46.3162 143.339 46.3162 142.984C46.3162 142.657 46.2042 142.401 45.9802 142.214C45.7655 142.018 45.4528 141.92 45.0422 141.92H42.5642V144.104H45.0422ZM53.4067 138H54.3867L51.3907 145.644C51.1201 146.335 50.7327 146.876 50.2287 147.268C49.7341 147.669 49.1787 147.847 48.5627 147.8V146.932C49.4027 147.025 50.0421 146.54 50.4807 145.476L50.6627 145.042L47.5267 138H48.5067L51.1387 143.866L53.4067 138ZM55.7856 143.81L54.9456 146.96H54.1056L54.6656 143.81H55.7856ZM67.9689 138V145H67.0449V139.414L64.5949 143.39H64.4829L62.0329 139.414V145H61.1089V138H62.1729L64.5389 141.836L66.9049 138H67.9689ZM75.9473 138H76.8713V145H75.9473V143.628C75.3033 144.655 74.3606 145.168 73.1193 145.168C72.1206 145.168 71.2666 144.813 70.5573 144.104C69.8573 143.395 69.5073 142.527 69.5073 141.5C69.5073 140.473 69.8573 139.605 70.5573 138.896C71.2666 138.187 72.1206 137.832 73.1193 137.832C74.3606 137.832 75.3033 138.345 75.9473 139.372V138ZM71.2293 143.474C71.7613 144.006 72.4146 144.272 73.1893 144.272C73.9639 144.272 74.6173 144.006 75.1493 143.474C75.6813 142.933 75.9473 142.275 75.9473 141.5C75.9473 140.725 75.6813 140.072 75.1493 139.54C74.6173 138.999 73.9639 138.728 73.1893 138.728C72.4146 138.728 71.7613 138.999 71.2293 139.54C70.6973 140.072 70.4313 140.725 70.4313 141.5C70.4313 142.275 70.6973 142.933 71.2293 143.474ZM79.9477 136.88V136.068H83.5877V136.88H79.9477ZM83.9237 138H84.7077V145H83.7837V139.61L79.6117 145H78.8277V138H79.7517V143.39L83.9237 138ZM94.8376 145H93.7176L90.8616 141.626V145H89.9376V141.626L87.0816 145H85.9616L89.0976 141.36L86.1016 138H87.2216L89.9376 141.108V138H90.8616V141.108L93.5776 138H94.6976L91.7016 141.36L94.8376 145ZM98.7687 137.832C99.8047 137.832 100.64 138.201 101.275 138.938C101.919 139.666 102.241 140.529 102.241 141.528C102.241 141.631 102.231 141.775 102.213 141.962H96.0667C96.16 142.671 96.4587 143.236 96.9627 143.656C97.476 144.067 98.106 144.272 98.8527 144.272C99.3847 144.272 99.842 144.165 100.225 143.95C100.617 143.726 100.911 143.437 101.107 143.082L101.919 143.558C101.611 144.053 101.191 144.445 100.659 144.734C100.127 145.023 99.52 145.168 98.8387 145.168C97.7374 145.168 96.8414 144.823 96.1507 144.132C95.46 143.441 95.1147 142.564 95.1147 141.5C95.1147 140.455 95.4554 139.582 96.1367 138.882C96.818 138.182 97.6954 137.832 98.7687 137.832ZM98.7687 138.728C98.0407 138.728 97.4294 138.947 96.9347 139.386C96.4494 139.815 96.16 140.375 96.0667 141.066H101.289C101.195 140.329 100.911 139.755 100.435 139.344C99.9587 138.933 99.4034 138.728 98.7687 138.728ZM112.166 138H113.09V145H112.166V141.948H108.134V145H107.21V138H108.134V141.052H112.166V138ZM118.278 137.832C119.314 137.832 120.15 138.201 120.784 138.938C121.428 139.666 121.75 140.529 121.75 141.528C121.75 141.631 121.741 141.775 121.722 141.962H115.576C115.67 142.671 115.968 143.236 116.472 143.656C116.986 144.067 117.616 144.272 118.362 144.272C118.894 144.272 119.352 144.165 119.734 143.95C120.126 143.726 120.42 143.437 120.616 143.082L121.428 143.558C121.12 144.053 120.7 144.445 120.168 144.734C119.636 145.023 119.03 145.168 118.348 145.168C117.247 145.168 116.351 144.823 115.66 144.132C114.97 143.441 114.624 142.564 114.624 141.5C114.624 140.455 114.965 139.582 115.646 138.882C116.328 138.182 117.205 137.832 118.278 137.832ZM118.278 138.728C117.55 138.728 116.939 138.947 116.444 139.386C115.959 139.815 115.67 140.375 115.576 141.066H120.798C120.705 140.329 120.42 139.755 119.944 139.344C119.468 138.933 118.913 138.728 118.278 138.728ZM131.172 141.402C131.938 141.682 132.32 142.228 132.32 143.04C132.32 143.609 132.129 144.081 131.746 144.454C131.373 144.818 130.832 145 130.122 145H126.72V138H129.842C130.524 138 131.051 138.177 131.424 138.532C131.798 138.877 131.984 139.325 131.984 139.876C131.984 140.576 131.714 141.085 131.172 141.402ZM129.842 138.896H127.644V141.024H129.842C130.654 141.024 131.06 140.66 131.06 139.932C131.06 139.605 130.953 139.353 130.738 139.176C130.533 138.989 130.234 138.896 129.842 138.896ZM130.122 144.104C130.533 144.104 130.846 144.006 131.06 143.81C131.284 143.614 131.396 143.339 131.396 142.984C131.396 142.657 131.284 142.401 131.06 142.214C130.846 142.018 130.533 141.92 130.122 141.92H127.644V144.104H130.122ZM134.658 136.32C134.528 136.451 134.369 136.516 134.182 136.516C133.996 136.516 133.837 136.451 133.706 136.32C133.576 136.189 133.51 136.031 133.51 135.844C133.51 135.657 133.576 135.499 133.706 135.368C133.837 135.237 133.996 135.172 134.182 135.172C134.369 135.172 134.528 135.237 134.658 135.368C134.789 135.499 134.854 135.657 134.854 135.844C134.854 136.031 134.789 136.189 134.658 136.32ZM133.72 145V138H134.644V145H133.72ZM142.485 144.104H143.465V146.876H142.541V145H136.829V146.876H135.905V144.104H136.759C137.235 143.479 137.473 142.597 137.473 141.458V138H142.485V144.104ZM137.879 144.104H141.561V138.896H138.397V141.458C138.397 142.531 138.224 143.413 137.879 144.104ZM148.615 137.832C149.613 137.832 150.463 138.187 151.163 138.896C151.872 139.605 152.227 140.473 152.227 141.5C152.227 142.527 151.872 143.395 151.163 144.104C150.463 144.813 149.613 145.168 148.615 145.168C147.373 145.168 146.431 144.655 145.787 143.628V147.8H144.863V138H145.787V139.372C146.431 138.345 147.373 137.832 148.615 137.832ZM146.585 143.474C147.117 144.006 147.77 144.272 148.545 144.272C149.319 144.272 149.973 144.006 150.505 143.474C151.037 142.933 151.303 142.275 151.303 141.5C151.303 140.725 151.037 140.072 150.505 139.54C149.973 138.999 149.319 138.728 148.545 138.728C147.77 138.728 147.117 138.999 146.585 139.54C146.053 140.072 145.787 140.725 145.787 141.5C145.787 142.275 146.053 142.933 146.585 143.474ZM154.701 136.32C154.571 136.451 154.412 136.516 154.225 136.516C154.039 136.516 153.88 136.451 153.749 136.32C153.619 136.189 153.553 136.031 153.553 135.844C153.553 135.657 153.619 135.499 153.749 135.368C153.88 135.237 154.039 135.172 154.225 135.172C154.412 135.172 154.571 135.237 154.701 135.368C154.832 135.499 154.897 135.657 154.897 135.844C154.897 136.031 154.832 136.189 154.701 136.32ZM153.763 145V138H154.687V145H153.763ZM160.26 141.402C161.072 141.71 161.478 142.27 161.478 143.082C161.478 143.661 161.249 144.155 160.792 144.566C160.344 144.967 159.7 145.168 158.86 145.168C157.451 145.168 156.527 144.608 156.088 143.488L156.872 143.026C157.161 143.857 157.824 144.272 158.86 144.272C159.401 144.272 159.817 144.155 160.106 143.922C160.405 143.689 160.554 143.39 160.554 143.026C160.554 142.699 160.433 142.433 160.19 142.228C159.947 142.023 159.621 141.92 159.21 141.92H158.188V141.024H158.93C159.331 141.024 159.644 140.926 159.868 140.73C160.101 140.525 160.218 140.245 160.218 139.89C160.218 139.554 160.083 139.279 159.812 139.064C159.541 138.84 159.177 138.728 158.72 138.728C157.843 138.728 157.259 139.078 156.97 139.778L156.2 139.33C156.667 138.331 157.507 137.832 158.72 137.832C159.457 137.832 160.045 138.028 160.484 138.42C160.923 138.803 161.142 139.274 161.142 139.834C161.142 140.553 160.848 141.075 160.26 141.402ZM167.838 138H168.762V145H167.838V141.948H163.806V145H162.882V138H163.806V141.052H167.838V138ZM175.756 138V145H174.832V142.312H173.628L171.472 145H170.296L172.508 142.284C171.948 142.2 171.486 141.967 171.122 141.584C170.758 141.201 170.576 140.73 170.576 140.17C170.576 139.535 170.8 139.017 171.248 138.616C171.706 138.205 172.261 138 172.914 138H175.756ZM172.914 141.444H174.832V138.896H172.914C172.522 138.896 172.186 139.013 171.906 139.246C171.636 139.479 171.5 139.787 171.5 140.17C171.5 140.553 171.636 140.861 171.906 141.094C172.186 141.327 172.522 141.444 172.914 141.444ZM183.204 142.858L184.002 143.32C183.76 143.889 183.358 144.342 182.798 144.678C182.248 145.005 181.594 145.168 180.838 145.168C179.774 145.168 178.916 144.823 178.262 144.132C177.618 143.432 177.296 142.555 177.296 141.5C177.296 140.445 177.618 139.573 178.262 138.882C178.906 138.182 179.756 137.832 180.81 137.832C181.51 137.832 182.136 137.995 182.686 138.322C183.246 138.649 183.666 139.097 183.946 139.666L183.134 140.128C182.938 139.699 182.635 139.358 182.224 139.106C181.814 138.854 181.342 138.728 180.81 138.728C180.11 138.728 179.527 138.947 179.06 139.386C178.603 139.815 178.332 140.371 178.248 141.052H181.734V141.948H178.248C178.342 142.629 178.622 143.189 179.088 143.628C179.555 144.057 180.138 144.272 180.838 144.272C181.436 144.272 181.94 144.146 182.35 143.894C182.761 143.633 183.046 143.287 183.204 142.858ZM190.166 138V138.896H187.688V145H186.764V138.896H184.286V138H190.166ZM194.135 140.66C194.788 140.66 195.339 140.865 195.787 141.276C196.244 141.677 196.473 142.195 196.473 142.83C196.473 143.465 196.244 143.987 195.787 144.398C195.339 144.799 194.788 145 194.135 145H191.293V138H192.217V140.66H194.135ZM194.135 144.104C194.527 144.104 194.858 143.987 195.129 143.754C195.409 143.521 195.549 143.213 195.549 142.83C195.549 142.447 195.409 142.139 195.129 141.906C194.858 141.673 194.527 141.556 194.135 141.556H192.217V144.104H194.135ZM201.062 145.168C200.008 145.168 199.13 144.818 198.43 144.118C197.73 143.409 197.38 142.536 197.38 141.5C197.38 140.464 197.73 139.596 198.43 138.896C199.13 138.187 200.008 137.832 201.062 137.832C201.753 137.832 202.374 138 202.924 138.336C203.475 138.663 203.876 139.106 204.128 139.666L203.372 140.1C203.186 139.68 202.882 139.349 202.462 139.106C202.052 138.854 201.585 138.728 201.062 138.728C200.288 138.728 199.634 138.999 199.102 139.54C198.57 140.072 198.304 140.725 198.304 141.5C198.304 142.275 198.57 142.933 199.102 143.474C199.634 144.006 200.288 144.272 201.062 144.272C201.585 144.272 202.052 144.151 202.462 143.908C202.873 143.656 203.195 143.32 203.428 142.9L204.198 143.348C203.909 143.908 203.484 144.351 202.924 144.678C202.364 145.005 201.744 145.168 201.062 145.168ZM210.428 138V145H209.504V142.312H208.3L206.144 145H204.968L207.18 142.284C206.62 142.2 206.158 141.967 205.794 141.584C205.43 141.201 205.248 140.73 205.248 140.17C205.248 139.535 205.472 139.017 205.92 138.616C206.378 138.205 206.933 138 207.586 138H210.428ZM207.586 141.444H209.504V138.896H207.586C207.194 138.896 206.858 139.013 206.578 139.246C206.308 139.479 206.172 139.787 206.172 140.17C206.172 140.553 206.308 140.861 206.578 141.094C206.858 141.327 207.194 141.444 207.586 141.444ZM220.34 141.402C221.106 141.682 221.488 142.228 221.488 143.04C221.488 143.609 221.297 144.081 220.914 144.454C220.541 144.818 220 145 219.29 145H215.888V138H219.01C219.692 138 220.219 138.177 220.592 138.532C220.966 138.877 221.152 139.325 221.152 139.876C221.152 140.576 220.882 141.085 220.34 141.402ZM219.01 138.896H216.812V141.024H219.01C219.822 141.024 220.228 140.66 220.228 139.932C220.228 139.605 220.121 139.353 219.906 139.176C219.701 138.989 219.402 138.896 219.01 138.896ZM219.29 144.104C219.701 144.104 220.014 144.006 220.228 143.81C220.452 143.614 220.564 143.339 220.564 142.984C220.564 142.657 220.452 142.401 220.228 142.214C220.014 142.018 219.701 141.92 219.29 141.92H216.812V144.104H219.29ZM223.826 136.32C223.696 136.451 223.537 136.516 223.35 136.516C223.164 136.516 223.005 136.451 222.874 136.32C222.744 136.189 222.678 136.031 222.678 135.844C222.678 135.657 222.744 135.499 222.874 135.368C223.005 135.237 223.164 135.172 223.35 135.172C223.537 135.172 223.696 135.237 223.826 135.368C223.957 135.499 224.022 135.657 224.022 135.844C224.022 136.031 223.957 136.189 223.826 136.32ZM222.888 145V138H223.812V145H222.888ZM231.653 144.104H232.633V146.876H231.709V145H225.997V146.876H225.073V144.104H225.927C226.403 143.479 226.641 142.597 226.641 141.458V138H231.653V144.104ZM227.047 144.104H230.729V138.896H227.565V141.458C227.565 142.531 227.392 143.413 227.047 144.104ZM6.72 154V161H5.796V154.896H2.632V158.018C2.632 159.185 2.408 159.987 1.96 160.426C1.52133 160.865 0.914667 161.056 0.14 161V160.132C0.672 160.188 1.064 160.062 1.316 159.754C1.57733 159.446 1.708 158.867 1.708 158.018V154H6.72ZM14.6553 153.832C15.6819 153.832 16.5499 154.187 17.2593 154.896C17.9779 155.596 18.3373 156.464 18.3373 157.5C18.3373 158.536 17.9779 159.409 17.2593 160.118C16.5499 160.818 15.6819 161.168 14.6553 161.168C13.7126 161.168 12.9006 160.865 12.2193 160.258C11.5473 159.642 11.1599 158.872 11.0573 157.948H9.60127V161H8.67727V154H9.60127V157.052H11.0573C11.1599 156.128 11.5473 155.363 12.2193 154.756C12.9006 154.14 13.7126 153.832 14.6553 153.832ZM12.6953 159.474C13.2273 160.006 13.8806 160.272 14.6553 160.272C15.4299 160.272 16.0833 160.006 16.6153 159.474C17.1473 158.933 17.4133 158.275 17.4133 157.5C17.4133 156.725 17.1473 156.072 16.6153 155.54C16.0833 154.999 15.4299 154.728 14.6553 154.728C13.8806 154.728 13.2273 154.999 12.6953 155.54C12.1633 156.072 11.8973 156.725 11.8973 157.5C11.8973 158.275 12.1633 158.933 12.6953 159.474ZM25.4811 160.104H26.4611V162.876H25.5371V161H19.8251V162.876H18.9011V160.104H19.7551C20.2311 159.479 20.4691 158.597 20.4691 157.458V154H25.4811V160.104ZM20.8751 160.104H24.5571V154.896H21.3931V157.458C21.3931 158.531 21.2204 159.413 20.8751 160.104ZM32.9549 154H33.7389V161H32.8149V155.61L28.6429 161H27.8589V154H28.7829V159.39L32.9549 154ZM40.6489 154H41.5729V161H40.6489V157.948H36.6169V161H35.6929V154H36.6169V157.052H40.6489V154ZM48.6229 154H49.4069V161H48.4829V155.61L44.3109 161H43.5269V154H44.4509V159.39L48.6229 154Z" fill="#373737"/>
<path d="M6.52 65C7.86667 65 9 65.4533 9.92 66.36C10.84 67.2667 11.3 68.38 11.3 69.7C11.3 71.02 10.84 72.1333 9.92 73.04C9 73.9467 7.86667 74.4 6.52 74.4H4.06V79H1.3V65H6.52ZM6.52 71.82C7.10667 71.82 7.59333 71.62 7.98 71.22C8.36667 70.8067 8.56 70.3 8.56 69.7C8.56 69.0867 8.36667 68.58 7.98 68.18C7.59333 67.78 7.10667 67.58 6.52 67.58H4.06V71.82H6.52ZM24.7792 77.18C23.3659 78.58 21.6459 79.28 19.6192 79.28C17.5926 79.28 15.8726 78.58 14.4592 77.18C13.0592 75.7667 12.3592 74.04 12.3592 72C12.3592 69.96 13.0592 68.24 14.4592 66.84C15.8726 65.4267 17.5926 64.72 19.6192 64.72C21.6459 64.72 23.3659 65.4267 24.7792 66.84C26.1926 68.24 26.8992 69.96 26.8992 72C26.8992 74.04 26.1926 75.7667 24.7792 77.18ZM16.3992 75.3C17.2659 76.1533 18.3392 76.58 19.6192 76.58C20.8992 76.58 21.9726 76.1533 22.8392 75.3C23.7059 74.4333 24.1392 73.3333 24.1392 72C24.1392 70.6667 23.7059 69.5667 22.8392 68.7C21.9726 67.8333 20.8992 67.4 19.6192 67.4C18.3392 67.4 17.2659 67.8333 16.3992 68.7C15.5326 69.5667 15.0992 70.6667 15.0992 72C15.0992 73.3333 15.5326 74.4333 16.3992 75.3ZM35.5559 71.76C36.8893 72.4667 37.5559 73.5733 37.5559 75.08C37.5559 76.3333 37.0826 77.3467 36.1359 78.12C35.1893 78.8933 33.9693 79.28 32.4759 79.28C29.8759 79.28 28.1359 78.18 27.2559 75.98L29.6359 74.64C30.0626 76 31.0093 76.68 32.4759 76.68C33.2359 76.68 33.8159 76.52 34.2159 76.2C34.6159 75.88 34.8159 75.4467 34.8159 74.9C34.8159 74.3533 34.6159 73.92 34.2159 73.6C33.8293 73.28 33.2693 73.12 32.5359 73.12H30.7959V70.66H32.1159C32.8093 70.66 33.3493 70.5133 33.7359 70.22C34.1226 69.9133 34.3159 69.5 34.3159 68.98C34.3159 68.46 34.1493 68.0533 33.8159 67.76C33.4826 67.4533 32.9893 67.3 32.3359 67.3C31.1359 67.3 30.2959 67.8867 29.8159 69.06L27.4759 67.7C28.4226 65.7133 30.0426 64.72 32.3359 64.72C33.7226 64.72 34.8559 65.0933 35.7359 65.84C36.6159 66.5867 37.0559 67.5733 37.0559 68.8C37.0559 70.0533 36.5559 71.04 35.5559 71.76ZM49.8069 65V79H47.0469V67.64H42.1069V79H39.3469V65H49.8069ZM52.4133 65H55.1733V79H52.4133V65ZM65.0286 71.76C66.3619 72.4667 67.0286 73.5733 67.0286 75.08C67.0286 76.3333 66.5553 77.3467 65.6086 78.12C64.6619 78.8933 63.4419 79.28 61.9486 79.28C59.3486 79.28 57.6086 78.18 56.7286 75.98L59.1086 74.64C59.5353 76 60.4819 76.68 61.9486 76.68C62.7086 76.68 63.2886 76.52 63.6886 76.2C64.0886 75.88 64.2886 75.4467 64.2886 74.9C64.2886 74.3533 64.0886 73.92 63.6886 73.6C63.3019 73.28 62.7419 73.12 62.0086 73.12H60.2686V70.66H61.5886C62.2819 70.66 62.8219 70.5133 63.2086 70.22C63.5953 69.9133 63.7886 69.5 63.7886 68.98C63.7886 68.46 63.6219 68.0533 63.2886 67.76C62.9553 67.4533 62.4619 67.3 61.8086 67.3C60.6086 67.3 59.7686 67.8867 59.2886 69.06L56.9486 67.7C57.8953 65.7133 59.5153 64.72 61.8086 64.72C63.1953 64.72 64.3286 65.0933 65.2086 65.84C66.0886 66.5867 66.5286 67.5733 66.5286 68.8C66.5286 70.0533 66.0286 71.04 65.0286 71.76ZM76.7795 65H79.5195V79H76.7795V73.2H71.5795V79H68.8195V65H71.5795V70.56H76.7795V65ZM91.1203 79L90.2803 76.48H84.7003L83.8603 79H80.8803L85.7803 65H89.2003L94.1203 79H91.1203ZM85.5803 73.9H89.4203L87.5003 68.18L85.5803 73.9ZM103.44 65H106.18V79H103.44V73.2H98.2397V79H95.4797V65H98.2397V70.56H103.44V65ZM116.74 65H119.48V79H116.74V73.2H111.54V79H108.78V65H111.54V70.56H116.74V65ZM131.961 65V79H129.201V74.14H127.621L124.401 79H121.301L124.721 73.84C123.828 73.52 123.101 72.9733 122.541 72.2C121.981 71.4267 121.701 70.5733 121.701 69.64C121.701 68.36 122.155 67.2667 123.061 66.36C123.968 65.4533 125.068 65 126.361 65H131.961ZM126.361 71.72H129.201V67.58H126.361C125.841 67.58 125.395 67.78 125.021 68.18C124.648 68.58 124.461 69.0667 124.461 69.64C124.461 70.2133 124.648 70.7067 125.021 71.12C125.395 71.52 125.841 71.72 126.361 71.72ZM153.262 65V79H150.522V69.92L146.582 76.42H146.262L142.322 69.94V79H139.562V65H142.402L146.422 71.62L150.422 65H153.262ZM167.65 77.18C166.237 78.58 164.517 79.28 162.49 79.28C160.464 79.28 158.744 78.58 157.33 77.18C155.93 75.7667 155.23 74.04 155.23 72C155.23 69.96 155.93 68.24 157.33 66.84C158.744 65.4267 160.464 64.72 162.49 64.72C164.517 64.72 166.237 65.4267 167.65 66.84C169.064 68.24 169.77 69.96 169.77 72C169.77 74.04 169.064 75.7667 167.65 77.18ZM159.27 75.3C160.137 76.1533 161.21 76.58 162.49 76.58C163.77 76.58 164.844 76.1533 165.71 75.3C166.577 74.4333 167.01 73.3333 167.01 72C167.01 70.6667 166.577 69.5667 165.71 68.7C164.844 67.8333 163.77 67.4 162.49 67.4C161.21 67.4 160.137 67.8333 159.27 68.7C158.404 69.5667 157.97 70.6667 157.97 72C157.97 73.3333 158.404 74.4333 159.27 75.3ZM180.17 71.74C181.397 72.4467 182.01 73.5133 182.01 74.94C182.01 76.1267 181.59 77.1 180.75 77.86C179.91 78.62 178.877 79 177.65 79H171.71V65H177.23C178.43 65 179.437 65.3733 180.25 66.12C181.077 66.8533 181.49 67.7933 181.49 68.94C181.49 70.1 181.05 71.0333 180.17 71.74ZM177.23 67.58H174.47V70.66H177.23C177.657 70.66 178.01 70.5133 178.29 70.22C178.583 69.9267 178.73 69.56 178.73 69.12C178.73 68.68 178.59 68.3133 178.31 68.02C178.03 67.7267 177.67 67.58 177.23 67.58ZM177.65 76.42C178.117 76.42 178.503 76.2667 178.81 75.96C179.117 75.64 179.27 75.24 179.27 74.76C179.27 74.2933 179.117 73.9067 178.81 73.6C178.503 73.28 178.117 73.12 177.65 73.12H174.47V76.42H177.65ZM191.92 79V70.46L185.92 79H183.82V65H186.58V73.56L192.58 65H194.68V79H191.92Z" fill="#373737"/>
<rect width="44" height="44" rx="7" fill="url(#paint0_linear_197_273)"/>
<path d="M22.828 21.672C22.6075 21.871 22.321 21.9812 22.024 21.9812C21.727 21.9812 21.4405 21.871 21.22 21.672L11.044 12.42C11.4433 12.1465 11.916 12.0001 12.4 12H31.6C32.084 12.0001 32.5567 12.1465 32.956 12.42L22.828 21.672Z" fill="url(#paint1_linear_197_273)"/>
<path d="M34 14.712V27.6C34 28.5548 33.6207 29.4705 32.9456 30.1456C32.2705 30.8207 31.3548 31.2 30.4 31.2H13.6C12.6452 31.2 11.7295 30.8207 11.0544 30.1456C10.3793 29.4705 10 28.5548 10 27.6V14.712L20.416 24.216C20.8553 24.5975 21.4182 24.8065 22 24.804C22.5891 24.8028 23.1571 24.585 23.596 24.192L34 14.712Z" fill="url(#paint2_linear_197_273)"/>
<defs>
<linearGradient id="paint0_linear_197_273" x1="-5.90244" y1="-5.36585" x2="44" y2="48.8293" gradientUnits="userSpaceOnUse">
<stop stop-color="#5A31F5"/>
<stop offset="1" stop-color="#5A31F5"/>
</linearGradient>
<linearGradient id="paint1_linear_197_273" x1="12.5" y1="12" x2="32" y2="31" gradientUnits="userSpaceOnUse">
<stop stop-color="white"/>
<stop offset="1" stop-color="white"/>
</linearGradient>
<linearGradient id="paint2_linear_197_273" x1="12.5" y1="12" x2="32" y2="31" gradientUnits="userSpaceOnUse">
<stop stop-color="white"/>
<stop offset="1" stop-color="white"/>
</linearGradient>
</defs>
</svg>
