<svg width="44" height="44" viewBox="0 0 44 44" fill="none" xmlns="http://www.w3.org/2000/svg">
<rect width="44" height="44" rx="7" fill="url(#paint0_linear_197_205)"/>
<path d="M29.6779 10C28.6868 10 27.7179 10.2939 26.8938 10.8445C26.0698 11.3952 25.4275 12.1778 25.0482 13.0934C24.6689 14.0091 24.5697 15.0167 24.763 15.9887C24.9564 16.9608 25.4337 17.8537 26.1345 18.5545C26.8353 19.2553 27.7282 19.7326 28.7002 19.9259C29.6723 20.1193 30.6799 20.0201 31.5955 19.6408C32.5112 19.2615 33.2938 18.6192 33.8444 17.7951C34.3951 16.9711 34.689 16.0022 34.689 15.0111C34.6876 13.6825 34.1591 12.4087 33.2197 11.4693C32.2802 10.5298 31.0065 10.0014 29.6779 10Z" fill="url(#paint1_linear_197_205)"/>
<path d="M30.7631 13.3571L29.1555 15.2852L28.5928 14.6104C28.5401 14.5473 28.4756 14.4951 28.4028 14.4569C28.3301 14.4188 28.2505 14.3953 28.1686 14.3878C28.0868 14.3804 28.0042 14.3891 27.9258 14.4136C27.8473 14.438 27.7744 14.4777 27.7113 14.5303C27.6481 14.5829 27.596 14.6475 27.5578 14.7202C27.5196 14.793 27.4961 14.8726 27.4887 14.9545C27.4812 15.0363 27.49 15.1188 27.5144 15.1973C27.5389 15.2758 27.5785 15.3486 27.6311 15.4118L28.6747 16.6646C28.7334 16.7351 28.8068 16.792 28.8899 16.831C28.973 16.87 29.0636 16.8902 29.1554 16.8903C29.2472 16.8903 29.3378 16.8702 29.4209 16.8313C29.504 16.7924 29.5776 16.7357 29.6363 16.6652L31.7247 14.1596C31.7778 14.0965 31.8179 14.0236 31.8427 13.945C31.8675 13.8663 31.8766 13.7836 31.8693 13.7014C31.8621 13.6193 31.8387 13.5394 31.8005 13.4664C31.7623 13.3933 31.7101 13.3285 31.6468 13.2756C31.5835 13.2228 31.5103 13.183 31.4316 13.1585C31.3529 13.134 31.2701 13.1253 31.188 13.1328C31.1059 13.1404 31.0261 13.1641 30.9532 13.2026C30.8803 13.2411 30.8157 13.2936 30.7631 13.3571Z" fill="url(#paint2_linear_197_205)"/>
<path d="M29.6779 24C28.6868 24 27.7179 24.2939 26.8938 24.8445C26.0698 25.3952 25.4275 26.1778 25.0482 27.0934C24.6689 28.0091 24.5697 29.0167 24.763 29.9887C24.9564 30.9608 25.4337 31.8537 26.1345 32.5545C26.8353 33.2553 27.7282 33.7326 28.7002 33.9259C29.6723 34.1193 30.6799 34.0201 31.5955 33.6408C32.5112 33.2615 33.2938 32.6192 33.8444 31.7951C34.3951 30.9711 34.689 30.0022 34.689 29.0111C34.6876 27.6825 34.1591 26.4087 33.2197 25.4693C32.2802 24.5298 31.0065 24.0014 29.6779 24Z" fill="url(#paint3_linear_197_205)"/>
<path d="M30.7631 27.3571L29.1555 29.2852L28.5928 28.6104C28.5401 28.5473 28.4756 28.4951 28.4028 28.4569C28.3301 28.4188 28.2505 28.3953 28.1686 28.3878C28.0868 28.3804 28.0042 28.3891 27.9258 28.4136C27.8473 28.438 27.7744 28.4777 27.7113 28.5303C27.6481 28.5829 27.596 28.6475 27.5578 28.7202C27.5196 28.793 27.4961 28.8726 27.4887 28.9545C27.4812 29.0363 27.49 29.1188 27.5144 29.1973C27.5389 29.2758 27.5785 29.3486 27.6311 29.4118L28.6747 30.6646C28.7334 30.7351 28.8068 30.792 28.8899 30.831C28.973 30.87 29.0636 30.8902 29.1554 30.8903C29.2472 30.8903 29.3378 30.8702 29.4209 30.8313C29.504 30.7924 29.5776 30.7357 29.6363 30.6652L31.7247 28.1596C31.7778 28.0965 31.8179 28.0236 31.8427 27.945C31.8675 27.8663 31.8766 27.7836 31.8693 27.7014C31.8621 27.6193 31.8387 27.5394 31.8005 27.4664C31.7623 27.3933 31.7101 27.3285 31.6468 27.2756C31.5835 27.2228 31.5103 27.183 31.4316 27.1585C31.3529 27.134 31.2701 27.1253 31.188 27.1328C31.1059 27.1404 31.0261 27.1641 30.9532 27.2026C30.8803 27.2411 30.8157 27.2936 30.7631 27.3571Z" fill="#6B8BDF"/>
<path d="M29.6779 10C28.6868 10 27.7179 10.2939 26.8938 10.8445C26.0698 11.3952 25.4275 12.1778 25.0482 13.0934C24.6689 14.0091 24.5697 15.0167 24.763 15.9887C24.9564 16.9608 25.4337 17.8537 26.1345 18.5545C26.8353 19.2553 27.7282 19.7326 28.7002 19.9259C29.6723 20.1193 30.6799 20.0201 31.5955 19.6408C32.5112 19.2615 33.2938 18.6192 33.8444 17.7951C34.3951 16.9711 34.689 16.0022 34.689 15.0111C34.6876 13.6825 34.1591 12.4087 33.2197 11.4693C32.2802 10.5298 31.0065 10.0014 29.6779 10Z" fill="url(#paint4_linear_197_205)"/>
<path d="M30.7631 13.3571L29.1555 15.2852L28.5928 14.6104C28.5401 14.5473 28.4756 14.4951 28.4028 14.4569C28.3301 14.4188 28.2505 14.3953 28.1686 14.3878C28.0868 14.3804 28.0042 14.3891 27.9258 14.4136C27.8473 14.438 27.7744 14.4777 27.7113 14.5303C27.6481 14.5829 27.596 14.6475 27.5578 14.7202C27.5196 14.793 27.4961 14.8726 27.4887 14.9545C27.4812 15.0363 27.49 15.1188 27.5144 15.1973C27.5389 15.2758 27.5785 15.3486 27.6311 15.4118L28.6747 16.6646C28.7334 16.7351 28.8068 16.792 28.8899 16.831C28.973 16.87 29.0636 16.8902 29.1554 16.8903C29.2472 16.8903 29.3378 16.8702 29.4209 16.8313C29.504 16.7924 29.5776 16.7357 29.6363 16.6652L31.7247 14.1596C31.7778 14.0965 31.8179 14.0236 31.8427 13.945C31.8675 13.8663 31.8766 13.7836 31.8693 13.7014C31.8621 13.6193 31.8387 13.5394 31.8005 13.4664C31.7623 13.3933 31.7101 13.3285 31.6468 13.2756C31.5835 13.2228 31.5103 13.183 31.4316 13.1585C31.3529 13.134 31.2701 13.1253 31.188 13.1328C31.1059 13.1404 31.0261 13.1641 30.9532 13.2026C30.8803 13.2411 30.8157 13.2936 30.7631 13.3571Z" fill="#6980E2"/>
<path d="M15.0111 10C14.02 10 13.0512 10.2939 12.2271 10.8445C11.403 11.3952 10.7607 12.1778 10.3815 13.0934C10.0022 14.0091 9.90293 15.0167 10.0963 15.9887C10.2896 16.9608 10.7669 17.8537 11.4677 18.5545C12.1685 19.2553 13.0614 19.7326 14.0335 19.9259C15.0056 20.1193 16.0131 20.0201 16.9288 19.6408C17.8444 19.2615 18.6271 18.6192 19.1777 17.7951C19.7283 16.9711 20.0222 16.0022 20.0222 15.0111C20.0208 13.6825 19.4924 12.4087 18.5529 11.4693C17.6135 10.5298 16.3397 10.0014 15.0111 10Z" fill="url(#paint5_linear_197_205)"/>
<path d="M16.0963 13.3571L14.4888 15.2852L13.926 14.6104C13.8734 14.5473 13.8089 14.4951 13.7361 14.4569C13.6633 14.4188 13.5837 14.3953 13.5019 14.3878C13.42 14.3804 13.3375 14.3891 13.259 14.4136C13.1806 14.438 13.1077 14.4777 13.0445 14.5303C12.9814 14.5829 12.9292 14.6475 12.891 14.7202C12.8528 14.793 12.8293 14.8726 12.8219 14.9545C12.8145 15.0363 12.8232 15.1188 12.8477 15.1973C12.8721 15.2758 12.9118 15.3486 12.9644 15.4118L14.008 16.6646C14.0666 16.7351 14.1401 16.792 14.2232 16.831C14.3062 16.87 14.3969 16.8902 14.4886 16.8903C14.5804 16.8903 14.6711 16.8702 14.7542 16.8313C14.8373 16.7924 14.9108 16.7357 14.9696 16.6652L17.058 14.1596C17.111 14.0965 17.1511 14.0236 17.1759 13.945C17.2008 13.8663 17.2098 13.7836 17.2026 13.7014C17.1953 13.6193 17.1719 13.5394 17.1337 13.4664C17.0956 13.3933 17.0433 13.3285 16.98 13.2756C16.9167 13.2228 16.8436 13.183 16.7649 13.1585C16.6862 13.134 16.6034 13.1253 16.5213 13.1328C16.4392 13.1404 16.3594 13.1641 16.2864 13.2026C16.2135 13.2411 16.1489 13.2936 16.0963 13.3571Z" fill="url(#paint6_linear_197_205)"/>
<path d="M15.0111 24C14.02 24 13.0512 24.2939 12.2271 24.8445C11.403 25.3952 10.7607 26.1778 10.3815 27.0934C10.0022 28.0091 9.90293 29.0167 10.0963 29.9887C10.2896 30.9608 10.7669 31.8537 11.4677 32.5545C12.1685 33.2553 13.0614 33.7326 14.0335 33.9259C15.0056 34.1193 16.0131 34.0201 16.9288 33.6408C17.8444 33.2615 18.6271 32.6192 19.1777 31.7951C19.7283 30.9711 20.0222 30.0022 20.0222 29.0111C20.0208 27.6825 19.4924 26.4087 18.5529 25.4693C17.6135 24.5298 16.3397 24.0014 15.0111 24Z" fill="url(#paint7_linear_197_205)"/>
<path d="M16.0963 27.3571L14.4888 29.2852L13.926 28.6104C13.8734 28.5473 13.8089 28.4951 13.7361 28.4569C13.6633 28.4188 13.5837 28.3953 13.5019 28.3878C13.42 28.3804 13.3375 28.3891 13.259 28.4136C13.1806 28.438 13.1077 28.4777 13.0445 28.5303C12.9814 28.5829 12.9292 28.6475 12.891 28.7202C12.8528 28.793 12.8293 28.8726 12.8219 28.9545C12.8145 29.0363 12.8232 29.1188 12.8477 29.1973C12.8721 29.2758 12.9118 29.3486 12.9644 29.4118L14.008 30.6646C14.0666 30.7351 14.1401 30.792 14.2232 30.831C14.3062 30.87 14.3969 30.8902 14.4886 30.8903C14.5804 30.8903 14.6711 30.8702 14.7542 30.8313C14.8373 30.7924 14.9108 30.7357 14.9696 30.6652L17.058 28.1596C17.111 28.0965 17.1511 28.0236 17.1759 27.945C17.2008 27.8663 17.2098 27.7836 17.2026 27.7014C17.1953 27.6193 17.1719 27.5394 17.1337 27.4664C17.0956 27.3933 17.0433 27.3285 16.98 27.2756C16.9167 27.2228 16.8436 27.183 16.7649 27.1585C16.6862 27.134 16.6034 27.1253 16.5213 27.1328C16.4392 27.1404 16.3594 27.1641 16.2864 27.2026C16.2135 27.2411 16.1489 27.2936 16.0963 27.3571Z" fill="#6980E2"/>
<path d="M15.0111 10C14.02 10 13.0512 10.2939 12.2271 10.8445C11.403 11.3952 10.7607 12.1778 10.3815 13.0934C10.0022 14.0091 9.90293 15.0167 10.0963 15.9887C10.2896 16.9608 10.7669 17.8537 11.4677 18.5545C12.1685 19.2553 13.0614 19.7326 14.0335 19.9259C15.0056 20.1193 16.0131 20.0201 16.9288 19.6408C17.8444 19.2615 18.6271 18.6192 19.1777 17.7951C19.7283 16.9711 20.0222 16.0022 20.0222 15.0111C20.0208 13.6825 19.4924 12.4087 18.5529 11.4693C17.6135 10.5298 16.3397 10.0014 15.0111 10Z" fill="url(#paint8_linear_197_205)"/>
<path d="M16.0963 13.3571L14.4888 15.2852L13.926 14.6104C13.8734 14.5473 13.8089 14.4951 13.7361 14.4569C13.6633 14.4188 13.5837 14.3953 13.5019 14.3878C13.42 14.3804 13.3375 14.3891 13.259 14.4136C13.1806 14.438 13.1077 14.4777 13.0445 14.5303C12.9814 14.5829 12.9292 14.6475 12.891 14.7202C12.8528 14.793 12.8293 14.8726 12.8219 14.9545C12.8145 15.0363 12.8232 15.1188 12.8477 15.1973C12.8721 15.2758 12.9118 15.3486 12.9644 15.4118L14.008 16.6646C14.0666 16.7351 14.1401 16.792 14.2232 16.831C14.3062 16.87 14.3969 16.8902 14.4886 16.8903C14.5804 16.8903 14.6711 16.8702 14.7542 16.8313C14.8373 16.7924 14.9108 16.7357 14.9696 16.6652L17.058 14.1596C17.111 14.0965 17.1511 14.0236 17.1759 13.945C17.2008 13.8663 17.2098 13.7836 17.2026 13.7014C17.1953 13.6193 17.1719 13.5394 17.1337 13.4664C17.0956 13.3933 17.0433 13.3285 16.98 13.2756C16.9167 13.2228 16.8436 13.183 16.7649 13.1585C16.6862 13.134 16.6034 13.1253 16.5213 13.1328C16.4392 13.1404 16.3594 13.1641 16.2864 13.2026C16.2135 13.2411 16.1489 13.2936 16.0963 13.3571Z" fill="#666EE6"/>
<defs>
<linearGradient id="paint0_linear_197_205" x1="-5.90244" y1="-5.36585" x2="44" y2="48.8293" gradientUnits="userSpaceOnUse">
<stop stop-color="#5A31F5"/>
<stop offset="1" stop-color="#5A31F5"/>
</linearGradient>
<linearGradient id="paint1_linear_197_205" x1="25" y1="11" x2="33" y2="19.5" gradientUnits="userSpaceOnUse">
<stop stop-color="#77C8D0"/>
<stop offset="1" stop-color="#77C8D0"/>
</linearGradient>
<linearGradient id="paint2_linear_197_205" x1="27.6319" y1="13.5054" x2="30.5709" y2="17.1476" gradientUnits="userSpaceOnUse">
<stop stop-color="white"/>
<stop offset="1" stop-color="white"/>
</linearGradient>
<linearGradient id="paint3_linear_197_205" x1="25" y1="25" x2="33" y2="33.5" gradientUnits="userSpaceOnUse">
<stop stop-color="white"/>
<stop offset="1" stop-color="white"/>
</linearGradient>
<linearGradient id="paint4_linear_197_205" x1="25" y1="11" x2="33" y2="19.5" gradientUnits="userSpaceOnUse">
<stop stop-color="white"/>
<stop offset="1" stop-color="white"/>
</linearGradient>
<linearGradient id="paint5_linear_197_205" x1="10.3333" y1="11" x2="18.3333" y2="19.5" gradientUnits="userSpaceOnUse">
<stop stop-color="#77C8D0"/>
<stop offset="1" stop-color="#77C8D0"/>
</linearGradient>
<linearGradient id="paint6_linear_197_205" x1="12.9652" y1="13.5054" x2="15.9042" y2="17.1476" gradientUnits="userSpaceOnUse">
<stop stop-color="white"/>
<stop offset="1" stop-color="white"/>
</linearGradient>
<linearGradient id="paint7_linear_197_205" x1="10.3333" y1="25" x2="18.3333" y2="33.5" gradientUnits="userSpaceOnUse">
<stop stop-color="white"/>
<stop offset="1" stop-color="white"/>
</linearGradient>
<linearGradient id="paint8_linear_197_205" x1="10.3333" y1="11" x2="18.3333" y2="19.5" gradientUnits="userSpaceOnUse">
<stop stop-color="white"/>
<stop offset="1" stop-color="white"/>
</linearGradient>
</defs>
</svg>
